<svg xmlns="http://www.w3.org/2000/svg" viewBox="0 0 120 120"><g transform="translate(60 44) scale(1.05)"><path d="M-34 14 C-46 14 -50 -2 -38 -8 C-40 -24 -20 -30 -12 -18 C-8 -34 18 -36 22 -16 C34 -22 48 -10 40 2 C50 6 48 16 36 16 Z" fill="#f4f6ff" stroke="#4d5b7c" stroke-width="3.0" stroke-linejoin="round"/><path d="M-30 12 C-10 16 14 16 34 12" fill="none" stroke="#dfe4f7" stroke-width="3.8" stroke-linecap="round"/></g><path d="M43.099999999999994 44 q5.2 -5.2 10.4 0 M66.5 44 q5.2 -5.2 10.4 0" fill="none" stroke="#2b2f45" stroke-width="3.1" stroke-linecap="round"/><ellipse cx="39.2" cy="51.2" rx="6.2" ry="3.6" fill="#ff9fb4" opacity="0.85"/><ellipse cx="80.8" cy="51.2" rx="6.2" ry="3.6" fill="#ff9fb4" opacity="0.85"/><path d="M54.8 52.5 q5.2 5.2 10.4 0" fill="none" stroke="#2b2f45" stroke-width="3.0" stroke-linecap="round"/><g stroke="#8cc4ff" stroke-width="2.6" stroke-linecap="round"><path d="M38 80 l7.0 0.0" /><path d="M38 80 l-7.0 0.0" /><path d="M38 80 l3.5 6.1" /><path d="M38 80 l-3.5 -6.1" /><path d="M38 80 l3.5 -6.1" /><path d="M38 80 l-3.5 6.1" /></g><circle cx="38" cy="80" r="2" fill="#fff" stroke="#8cc4ff" stroke-width="1.5"/><g stroke="#8cc4ff" stroke-width="2.6" stroke-linecap="round"><path d="M60 94 l8.0 0.0" /><path d="M60 94 l-8.0 0.0" /><path d="M60 94 l4.0 7.0" /><path d="M60 94 l-4.0 -7.0" /><path d="M60 94 l4.0 -7.0" /><path d="M60 94 l-4.0 7.0" /></g><circle cx="60" cy="94" r="2" fill="#fff" stroke="#8cc4ff" stroke-width="1.5"/><g stroke="#8cc4ff" stroke-width="2.6" stroke-linecap="round"><path d="M82 80 l7.0 0.0" /><path d="M82 80 l-7.0 0.0" /><path d="M82 80 l3.5 6.1" /><path d="M82 80 l-3.5 -6.1" /><path d="M82 80 l3.5 -6.1" /><path d="M82 80 l-3.5 6.1" /></g><circle cx="82" cy="80" r="2" fill="#fff" stroke="#8cc4ff" stroke-width="1.5"/></svg>