<svg xmlns="http://www.w3.org/2000/svg" viewBox="0 0 220 190">
  <defs>
    <linearGradient id="eh-lijf" x1="0" y1="0" x2="0" y2="1">
      <stop offset="0" stop-color="#ffffff"/>
      <stop offset="1" stop-color="#ece6f7"/>
    </linearGradient>
    <linearGradient id="eh-manen" x1="0" y1="0" x2="1" y2="1">
      <stop offset="0" stop-color="#ff8fd0"/>
      <stop offset="0.5" stop-color="#c58cff"/>
      <stop offset="1" stop-color="#7ec8ff"/>
    </linearGradient>
    <linearGradient id="eh-hoorn" x1="0" y1="0" x2="1" y2="1">
      <stop offset="0" stop-color="#ffe98a"/>
      <stop offset="1" stop-color="#f5b83d"/>
    </linearGradient>
  </defs>
  <!-- staart -->
  <path d="M168 92 C196 84 212 104 204 128 C200 140 188 146 180 142 C192 128 186 110 166 106 Z" fill="url(#eh-manen)" stroke="#8a5bb8" stroke-width="3" stroke-linejoin="round"/>
  <!-- achterste poten -->
  <rect x="140" y="118" width="18" height="52" rx="8" fill="#e6def3" stroke="#6d5a8c" stroke-width="3"/>
  <rect x="78" y="120" width="18" height="50" rx="8" fill="#e6def3" stroke="#6d5a8c" stroke-width="3"/>
  <!-- lijf -->
  <ellipse cx="124" cy="104" rx="52" ry="32" fill="url(#eh-lijf)" stroke="#6d5a8c" stroke-width="3"/>
  <!-- voorste poten met hoefjes -->
  <rect x="152" y="120" width="18" height="52" rx="8" fill="url(#eh-lijf)" stroke="#6d5a8c" stroke-width="3"/>
  <rect x="90" y="122" width="18" height="50" rx="8" fill="url(#eh-lijf)" stroke="#6d5a8c" stroke-width="3"/>
  <rect x="152" y="164" width="18" height="10" rx="4" fill="#c58cff" stroke="#6d5a8c" stroke-width="2.5"/>
  <rect x="90" y="164" width="18" height="10" rx="4" fill="#c58cff" stroke="#6d5a8c" stroke-width="2.5"/>
  <!-- nek en kop -->
  <path d="M96 96 C88 72 80 54 72 44 L102 38 C108 56 112 76 114 92 Z" fill="url(#eh-lijf)" stroke="#6d5a8c" stroke-width="3" stroke-linejoin="round"/>
  <path d="M60 30 C80 18 104 26 108 44 C112 60 100 70 84 72 C70 74 52 80 40 76 C28 72 28 58 38 50 C44 44 50 36 60 30 Z" fill="url(#eh-lijf)" stroke="#6d5a8c" stroke-width="3" stroke-linejoin="round"/>
  <!-- hoorn -->
  <path d="M66 30 L54 2 L78 26 Z" fill="url(#eh-hoorn)" stroke="#b07a1c" stroke-width="2.5" stroke-linejoin="round"/>
  <path d="M60 16 L68 14 M63 22 L72 20" stroke="#b07a1c" stroke-width="2" stroke-linecap="round"/>
  <!-- oor -->
  <path d="M88 24 L96 8 L100 28 Z" fill="#ffffff" stroke="#6d5a8c" stroke-width="2.5" stroke-linejoin="round"/>
  <!-- manen -->
  <path d="M100 26 C118 30 124 48 118 62 C126 72 122 86 112 94 C114 80 106 70 104 58 C102 46 96 36 92 30 Z" fill="url(#eh-manen)" stroke="#8a5bb8" stroke-width="3" stroke-linejoin="round"/>
  <path d="M76 22 C82 14 92 14 98 22 C90 20 84 22 78 28 Z" fill="url(#eh-manen)" stroke="#8a5bb8" stroke-width="2.5" stroke-linejoin="round"/>
  <!-- oog, wang, neusgat, lach -->
  <path d="M66 46 C69 42 75 42 78 46" fill="none" stroke="#3b2d52" stroke-width="3" stroke-linecap="round"/>
  <path d="M66 44 L63 41 M70 42 L69 38 M74 42 L76 38" stroke="#3b2d52" stroke-width="2" stroke-linecap="round"/>
  <ellipse cx="80" cy="58" rx="7" ry="4" fill="#ff9ac8" opacity="0.8"/>
  <circle cx="42" cy="62" r="2.2" fill="#8a7aa3"/>
  <path d="M40 70 C46 74 54 74 58 70" fill="none" stroke="#6d5a8c" stroke-width="2.5" stroke-linecap="round"/>
</svg>
