<svg width="64" height="64" viewBox="0 0 64 64" fill="none" xmlns="http://www.w3.org/2000/svg">
<g transform="rotate(-30 32 32)">
<rect x="2" y="25" width="12" height="14" rx="3" fill="#0e3a40"/>
<circle cx="5" cy="23.5" r="1.8" fill="#cfd8dc"/>
<circle cx="11" cy="23.5" r="1.8" fill="#cfd8dc"/>
<circle cx="5" cy="40.5" r="1.8" fill="#cfd8dc"/>
<circle cx="11" cy="40.5" r="1.8" fill="#cfd8dc"/>
<path d="M12 23 H54 Q62 23 62 32 Q62 41 54 41 H12z" fill="#1f7a80" stroke="#0e3a40" stroke-width="2"/>
<path d="M14 25.5 H53 Q58 25.5 59 29" stroke="#5fc3c8" stroke-width="1.5" stroke-linecap="round"/>
<path d="M19 24v16M25 24v16M31 24v16M37 24v16M43 24v16" stroke="#e0f2f1" stroke-width="0.9" opacity="0.8"/>
<circle cx="22" cy="32" r="1.3" fill="#fff"/>
<circle cx="34" cy="32" r="1.3" fill="#fff"/>
<rect x="47" y="25" width="6" height="14" rx="1.5" fill="#cfd8dc" stroke="#78909c" stroke-width="1"/>
<path d="M12 28H57M12 31H58M12 34H58M12 37H57" stroke="#f5f5f5" stroke-width="0.8"/>
<rect x="26" y="17" width="7" height="30" rx="3.5" fill="#b0bec5" stroke="#607d8b" stroke-width="1"/>
<rect x="27.5" y="19" width="2" height="26" rx="1" fill="#eceff1"/>
</g>
</svg>
