<svg xmlns="http://www.w3.org/2000/svg" viewBox="0 0 200 180">
  <defs>
    <linearGradient id="hn-lijf" x1="0" y1="0" x2="1" y2="1">
      <stop offset="0" stop-color="#ffb347"/>
      <stop offset="1" stop-color="#d9531e"/>
    </linearGradient>
  </defs>
  <!-- grote gebogen staartveren: hét kenmerk van een haan -->
  <path d="M70 100 C40 96 18 70 22 30 C36 52 52 66 72 74 Z" fill="#2e8b57" stroke="#1d5a38" stroke-width="3" stroke-linejoin="round"/>
  <path d="M72 96 C48 78 42 48 54 18 C60 44 70 60 84 72 Z" fill="#2f6fd6" stroke="#1d4796" stroke-width="3" stroke-linejoin="round"/>
  <path d="M76 94 C66 72 70 46 84 28 C84 52 88 66 96 78 Z" fill="#1f9e8a" stroke="#136656" stroke-width="3" stroke-linejoin="round"/>
  <!-- poten -->
  <path d="M96 138 L94 166 M112 138 L114 166" stroke="#e6a016" stroke-width="6" stroke-linecap="round"/>
  <path d="M84 168 L94 166 L102 170 M106 170 L114 166 L124 168" fill="none" stroke="#e6a016" stroke-width="5" stroke-linecap="round" stroke-linejoin="round"/>
  <!-- lijf -->
  <path d="M68 96 C68 76 90 66 112 70 C132 74 142 94 136 116 C130 138 110 146 92 142 C76 138 68 118 68 96 Z" fill="url(#hn-lijf)" stroke="#8a3312" stroke-width="3"/>
  <path d="M84 104 C96 94 116 98 122 112 C110 110 96 114 88 124 Z" fill="#b8431a" stroke="#8a3312" stroke-width="2.5" stroke-linejoin="round"/>
  <!-- lange nek en kop, rechtop -->
  <path d="M112 76 C114 58 118 44 126 36 L144 44 C140 56 134 72 128 86 Z" fill="#ffc15a" stroke="#8a3312" stroke-width="3" stroke-linejoin="round"/>
  <circle cx="138" cy="36" r="18" fill="#ffc15a" stroke="#8a3312" stroke-width="3"/>
  <!-- grote rode kam -->
  <path d="M120 24 C116 12 126 6 130 14 C130 2 142 0 142 12 C146 2 158 4 154 16 C160 12 166 20 156 26 Z" fill="#e3342f" stroke="#9e1d19" stroke-width="2.5" stroke-linejoin="round"/>
  <!-- open snavel: kukeleku! -->
  <path d="M154 32 L170 28 L156 38 Z" fill="#ffb13d" stroke="#c77a12" stroke-width="2.5" stroke-linejoin="round"/>
  <path d="M154 40 L168 44 L154 44 Z" fill="#ffb13d" stroke="#c77a12" stroke-width="2.5" stroke-linejoin="round"/>
  <path d="M150 48 C156 54 152 64 146 60 C142 56 146 48 150 48 Z" fill="#e3342f" stroke="#9e1d19" stroke-width="2"/>
  <!-- geluidsstreepjes -->
  <path d="M176 24 C182 26 184 30 184 34 M178 12 C188 16 194 26 192 36 M176 42 C182 44 186 48 186 52" fill="none" stroke="#8a3312" stroke-width="3" stroke-linecap="round"/>
  <!-- oog -->
  <circle cx="142" cy="32" r="4.5" fill="#1b1b2f"/>
  <circle cx="143.5" cy="30.5" r="1.4" fill="#fff"/>
</svg>
