<svg xmlns="http://www.w3.org/2000/svg" viewBox="0 0 120 120">
  <!-- Een reus naast een klein huisje, zelf getekend voor leren-lezen. -->
  <path d="M0 112 H120 V120 H0 Z" fill="#7cb342"/>
  <path d="M84 40 C78 40 76 32 82 30 C82 22 94 22 96 28 C102 24 110 28 108 34 C114 36 112 42 106 42 Z" fill="#fff" stroke="#cfd8dc" stroke-width="2"/>
  <g stroke="#5d4037" stroke-width="2.5" stroke-linejoin="round">
    <path d="M42 84 H56 V108 H42 Z M62 84 H76 V108 H62 Z" fill="#795548"/>
    <path d="M38 106 H57 V114 H36 Z M61 106 H80 V114 H59 Z" fill="#4e342e"/>
  </g>
  <path d="M38 42 C38 38 42 36 46 36 H72 C76 36 80 38 80 42 L82 88 H36 Z" fill="#43a047" stroke="#2e7d32" stroke-width="3" stroke-linejoin="round"/>
  <path d="M36 74 H82" stroke="#5d4037" stroke-width="6"/><rect x="54" y="70" width="10" height="8" fill="#fbc02d"/>
  <path d="M38 44 C28 52 24 64 26 78 M80 44 C90 52 94 64 92 78" fill="none" stroke="#2e7d32" stroke-width="12" stroke-linecap="round"/>
  <path d="M38 44 C28 52 24 64 26 78 M80 44 C90 52 94 64 92 78" fill="none" stroke="#43a047" stroke-width="8" stroke-linecap="round"/>
  <circle cx="26" cy="82" r="6" fill="#f6c39a" stroke="#c98b5e" stroke-width="2"/><circle cx="92" cy="82" r="6" fill="#f6c39a" stroke="#c98b5e" stroke-width="2"/>
  <circle cx="59" cy="22" r="15" fill="#f6c39a" stroke="#c98b5e" stroke-width="2.5"/>
  <path d="M44 22 C44 36 50 44 59 44 C68 44 74 36 74 22 C70 30 48 30 44 22 Z" fill="#8d5a2b" stroke="#5d3a1a" stroke-width="2"/>
  <path d="M44 18 C44 8 52 4 59 4 C66 4 74 8 74 18 C68 12 50 12 44 18 Z" fill="#8d5a2b" stroke="#5d3a1a" stroke-width="2"/>
  <circle cx="53" cy="20" r="2.2" fill="#212121"/><circle cx="65" cy="20" r="2.2" fill="#212121"/>
  <path d="M54 31 C57 34 61 34 64 31" fill="none" stroke="#5d3a1a" stroke-width="2.5" stroke-linecap="round"/>
  <path d="M98 112 V100 L106 92 L114 100 V112 Z" fill="#ffcc80" stroke="#8d6e63" stroke-width="2" stroke-linejoin="round"/>
  <path d="M96 101 L106 90 L116 101" fill="none" stroke="#e53935" stroke-width="3" stroke-linejoin="round"/>
  <rect x="104" y="104" width="4" height="8" fill="#8d6e63"/>
  <circle cx="14" cy="102" r="7" fill="#66bb6a"/><rect x="12.5" y="106" width="3" height="6" fill="#795548"/>
</svg>
