<svg xmlns="http://www.w3.org/2000/svg" viewBox="0 0 120 120">
  <!-- Een hand die 3 laat zien, zelf getekend voor leren-lezen. -->
  <g transform="translate(0 0)"><rect x="78" y="56" width="12" height="18" rx="6.0" fill="#f6c39a" stroke="#c98b5e" stroke-width="2.5"/><rect x="36" y="24" width="13" height="52" rx="6.5" fill="#f6c39a" stroke="#c98b5e" stroke-width="2.5"/><ellipse cx="42.5" cy="30" rx="4.0" ry="4" fill="#fde6d2"/><path d="M39 47.1 h7" stroke="#c98b5e" stroke-width="1.5" stroke-linecap="round" opacity="0.7"/><rect x="50" y="20" width="13" height="56" rx="6.5" fill="#f6c39a" stroke="#c98b5e" stroke-width="2.5"/><ellipse cx="56.5" cy="26" rx="4.0" ry="4" fill="#fde6d2"/><path d="M53 45.3 h7" stroke="#c98b5e" stroke-width="1.5" stroke-linecap="round" opacity="0.7"/><rect x="64" y="23" width="13" height="53" rx="6.5" fill="#f6c39a" stroke="#c98b5e" stroke-width="2.5"/><ellipse cx="70.5" cy="29" rx="4.0" ry="4" fill="#fde6d2"/><path d="M67 46.650000000000006 h7" stroke="#c98b5e" stroke-width="1.5" stroke-linecap="round" opacity="0.7"/><path d="M33 64 H92 C93 84 92 98 86 108 C80 116 46 116 40 108 C34 100 32 84 33 64 Z" fill="#f6c39a" stroke="#c98b5e" stroke-width="2.5" stroke-linejoin="round"/><path d="M79 70 q5.0 6 10 0" fill="none" stroke="#c98b5e" stroke-width="2" stroke-linecap="round"/><path d="M38 80 C46 76 60 78 70 82" fill="none" stroke="#c98b5e" stroke-width="12" stroke-linecap="round"/><path d="M38 80 C46 76 60 78 70 82" fill="none" stroke="#f6c39a" stroke-width="7.5" stroke-linecap="round"/><path d="M38 110 H88 V120 H38 Z" fill="#42a5f5" stroke="#1565c0" stroke-width="2.5"/></g>
</svg>
